<svg width="19" height="21" viewBox="0 0 19 21" fill="none" xmlns="http://www.w3.org/2000/svg">
<path fill-rule="evenodd" clip-rule="evenodd" d="M14.4483 0.743865V1.77876C17.457 2.07065 18.9961 3.73355 18.9961 6.72324V14.9935C18.9961 18.3193 17.1004 20.0088 13.37 20.0088H6.62218C2.89175 20.0088 0.996094 18.3193 0.996094 14.9935V6.72324C0.996094 4.73307 1.67435 3.30898 3.06566 2.47753C3.28498 2.32783 3.56872 2.31738 3.79811 2.45055C4.0275 2.58373 4.16296 2.83755 4.14779 3.10577C4.13261 3.37399 3.96942 3.61034 3.72653 3.71586C2.80479 4.26427 2.37001 5.21955 2.37001 6.72324V6.9886H15.057C15.4364 6.9886 15.7439 7.30145 15.7439 7.68738C15.7439 8.0733 15.4364 8.38615 15.057 8.38615H2.37001V14.9935C2.37001 17.5321 3.60479 18.5847 6.62218 18.6024H13.37C16.3439 18.6024 17.6135 17.5233 17.6135 14.9847V6.7144C17.6135 4.50309 16.6483 3.43282 14.4483 3.1763V3.84854C14.3975 4.20685 14.0891 4.46843 13.7335 4.45478C13.3779 4.44112 13.0897 4.15665 13.0657 3.79547V0.681948C13.0724 0.494972 13.1526 0.318556 13.2882 0.192202C13.4239 0.0658479 13.6037 0.000110977 13.7874 0.00971025C14.1661 0.0333999 14.4584 0.358021 14.4483 0.743865ZM6.70487 4.30158C6.57415 4.43288 6.39718 4.50546 6.21349 4.50309C5.83749 4.49344 5.53904 4.17802 5.54392 3.79547V0.743865C5.58345 0.385875 5.88108 0.115236 6.23522 0.115236C6.58937 0.115236 6.887 0.385875 6.92653 0.743865V1.708H10.857C11.2364 1.708 11.5439 2.02085 11.5439 2.40677C11.5439 2.79269 11.2364 3.10554 10.857 3.10554H6.90914V3.80432C6.90915 3.99119 6.83558 4.17027 6.70487 4.30158ZM14.1874 10.624C13.7072 10.624 13.3178 11.02 13.3178 11.5085C13.3178 11.997 13.7072 12.393 14.1874 12.393C14.6676 12.393 15.057 11.997 15.057 11.5085C15.057 11.2724 14.9642 11.0461 14.7992 10.8799C14.6342 10.7138 14.4108 10.6216 14.1787 10.624H14.1874ZM9.14392 11.5085C9.14392 11.02 9.53324 10.624 10.0135 10.624C10.4937 10.624 10.883 11.02 10.883 11.5085C10.883 11.997 10.4937 12.393 10.0135 12.393C9.53324 12.393 9.14392 11.997 9.14392 11.5085ZM5.84827 10.624C5.36802 10.624 4.9787 11.02 4.9787 11.5085C4.9787 11.997 5.36802 12.393 5.84827 12.393C6.32852 12.393 6.71783 11.997 6.71783 11.5085C6.71784 11.2724 6.62504 11.0461 6.46008 10.8799C6.29512 10.7138 6.0717 10.6216 5.83957 10.624H5.84827ZM13.3178 15.0908C13.3178 14.6023 13.7072 14.2063 14.1874 14.2063H14.1787C14.4108 14.204 14.6342 14.2961 14.7992 14.4622C14.9642 14.6284 15.057 14.8547 15.057 15.0908C15.057 15.5793 14.6676 15.9754 14.1874 15.9754C13.7072 15.9754 13.3178 15.5793 13.3178 15.0908ZM10.0135 14.2063C9.53324 14.2063 9.14392 14.6023 9.14392 15.0908C9.14392 15.5793 9.53324 15.9754 10.0135 15.9754C10.4937 15.9754 10.883 15.5793 10.883 15.0908C10.883 14.6023 10.4937 14.2063 10.0135 14.2063ZM4.9787 15.0908C4.9787 14.6023 5.36802 14.2063 5.84827 14.2063H5.83957C6.0717 14.204 6.29512 14.2961 6.46008 14.4622C6.62504 14.6284 6.71784 14.8547 6.71783 15.0908C6.71783 15.5793 6.32852 15.9754 5.84827 15.9754C5.36802 15.9754 4.9787 15.5793 4.9787 15.0908Z" fill="#616164"/>
</svg>
